<svg xmlns="http://www.w3.org/2000/svg" width="856.2" height="75.58" viewBox="0 0 856.2 75.58"><title>GNoSTheme</title><path d="M0,61.15V8.57H15.09a10,10,0,0,1,7.31,3.08A10,10,0,0,1,25.48,19V50.75a10,10,0,0,1-3.08,7.31,10,10,0,0,1-7.31,3.09Zm8-7.38h7.11a2.3,2.3,0,0,0,2.41-2.41v-33A2.3,2.3,0,0,0,15.09,16H8Z" transform="translate(0 -2.13)"/><path d="M41.58,61.15h-8V8.57h8Z" transform="translate(0 -2.13)"/><path d="M49.09,50.75V45.66h8v5.7a2.3,2.3,0,0,0,2.41,2.41h5a2.45,2.45,0,0,0,1.77-.67,2.31,2.31,0,0,0,.71-1.74V40.49a2.26,2.26,0,0,0-.71-1.64,2.4,2.4,0,0,0-1.77-.71H59.82a10,10,0,0,1-7.31-3.08,10,10,0,0,1-3.09-7.31V19a10,10,0,0,1,3.09-7.31,10,10,0,0,1,7.31-3.08h4.36a10,10,0,0,1,7.31,3.08A10,10,0,0,1,74.57,19v4.83h-8V18.36a2.28,2.28,0,0,0-.73-1.71,2.46,2.46,0,0,0-1.75-.7H59.82a2.39,2.39,0,0,0-2.41,2.41v10a2.41,2.41,0,0,0,2.41,2.42h4.69a10,10,0,0,1,7.31,3.05,9.86,9.86,0,0,1,3.09,7.27v9.66a10.55,10.55,0,0,1-10.4,10.4h-5a10.54,10.54,0,0,1-10.39-10.4Z" transform="translate(0 -2.13)"/><path d="M80.88,50.75V19A10,10,0,0,1,84,11.65a10,10,0,0,1,7.31-3.08H96a10,10,0,0,1,7.31,3.08A10,10,0,0,1,106.36,19v2.35h-8V18.36A2.3,2.3,0,0,0,96,16h-4.7a2.3,2.3,0,0,0-2.41,2.41v33a2.3,2.3,0,0,0,2.41,2.41H96a2.3,2.3,0,0,0,2.41-2.41v-3h8v2.35A10.54,10.54,0,0,1,96,61.15h-4.7a10.54,10.54,0,0,1-10.39-10.4Z" transform="translate(0 -2.13)"/><path d="M113,50.75V19a10,10,0,0,1,3.09-7.31,10,10,0,0,1,7.31-3.08h4.69a10,10,0,0,1,7.31,3.08A10,10,0,0,1,138.49,19V50.75a10.55,10.55,0,0,1-10.4,10.4H123.4A10.55,10.55,0,0,1,113,50.75Zm10.4,3h4.69a2.3,2.3,0,0,0,2.41-2.41v-33A2.3,2.3,0,0,0,128.09,16H123.4A2.3,2.3,0,0,0,121,18.36v33a2.3,2.3,0,0,0,2.42,2.41Z" transform="translate(0 -2.13)"/><path d="M172.08,41.5V61.15h-8V40.89a2.3,2.3,0,0,0-2.41-2.41h-7.11V61.15h-8V8.57h14.75a10,10,0,0,1,7.31,3.08A10,10,0,0,1,171.75,19v9.12a9.87,9.87,0,0,1-2.28,6.51A10.1,10.1,0,0,1,172.08,41.5Zm-17.5-10.4h6.77a2.3,2.3,0,0,0,2.42-2.41V18.36A2.3,2.3,0,0,0,161.35,16h-6.77Z" transform="translate(0 -2.13)"/><path d="M180.2,61.15V8.57h15.09a10,10,0,0,1,7.31,3.08A10,10,0,0,1,205.68,19V50.75a10.54,10.54,0,0,1-10.39,10.4Zm8-7.38h7.11a2.3,2.3,0,0,0,2.41-2.41v-33A2.3,2.3,0,0,0,195.29,16h-7.11Z" transform="translate(0 -2.13)"/><path d="M224.33,61.15V19a10,10,0,0,1,3.08-7.31,10,10,0,0,1,7.31-3.08h4.7a10,10,0,0,1,7.31,3.08A10,10,0,0,1,249.81,19V61.15h-8V38.28h-9.52V61.15Zm8-30.25h9.52V18.36A2.3,2.3,0,0,0,239.42,16h-4.7a2.3,2.3,0,0,0-2.41,2.41Z" transform="translate(0 -2.13)"/><path d="M257.92,61.15V8.57H273a10,10,0,0,1,7.31,3.08A10,10,0,0,1,283.41,19v9.53a10,10,0,0,1-3.09,7.31A10,10,0,0,1,273,38.88h-7.1V61.15Zm8-29.65H273a2.3,2.3,0,0,0,2.42-2.41V18.36A2.3,2.3,0,0,0,273,16h-7.1Z" transform="translate(0 -2.13)"/><path d="M291.52,61.15V8.57h15.09a10,10,0,0,1,7.31,3.08A10,10,0,0,1,317,19v9.53a10,10,0,0,1-3.09,7.31,10,10,0,0,1-7.31,3.08H299.5V61.15Zm8-29.65h7.11A2.3,2.3,0,0,0,309,29.09V18.36A2.3,2.3,0,0,0,306.61,16H299.5Z" transform="translate(0 -2.13)"/><path d="M342.56,61.15H325.12V8.57h8v45.2h9.46Z" transform="translate(0 -2.13)"/><path d="M358.32,61.15h-8V8.57h8Z" transform="translate(0 -2.13)"/><path d="M366.43,50.75V19a10,10,0,0,1,3.09-7.31,10,10,0,0,1,7.31-3.08h4.69a10,10,0,0,1,7.31,3.08A10,10,0,0,1,391.92,19v2.35h-8V18.36A2.3,2.3,0,0,0,381.52,16h-4.69a2.3,2.3,0,0,0-2.42,2.41v33a2.39,2.39,0,0,0,.67,1.74,2.36,2.36,0,0,0,1.75.67h4.69a2.36,2.36,0,0,0,1.75-.67,2.39,2.39,0,0,0,.67-1.74v-3h8v2.35a10.55,10.55,0,0,1-10.4,10.4h-4.69a10.55,10.55,0,0,1-10.4-10.4Z" transform="translate(0 -2.13)"/><path d="M398.56,61.15V19a10,10,0,0,1,3.08-7.31A10,10,0,0,1,409,8.57h4.69A10,10,0,0,1,421,11.65,10,10,0,0,1,424,19V61.15h-8V38.28h-9.52V61.15Zm8-30.25h9.52V18.36A2.3,2.3,0,0,0,413.64,16H409a2.3,2.3,0,0,0-2.41,2.41Z" transform="translate(0 -2.13)"/><path d="M444.83,61.15h-8V16h-8.52V8.57h25.08V16h-8.58Z" transform="translate(0 -2.13)"/><path d="M467.23,61.15h-8V8.57h8Z" transform="translate(0 -2.13)"/><path d="M475.34,50.75V19a10,10,0,0,1,3.09-7.31,10,10,0,0,1,7.31-3.08h4.69a10,10,0,0,1,7.31,3.08A10,10,0,0,1,500.83,19V50.75a10.55,10.55,0,0,1-10.4,10.4h-4.69a10.55,10.55,0,0,1-10.4-10.4Zm10.4,3h4.69a2.32,2.32,0,0,0,1.74-.67,2.36,2.36,0,0,0,.68-1.74v-33A2.31,2.31,0,0,0,490.43,16h-4.69a2.3,2.3,0,0,0-2.42,2.41v33A2.39,2.39,0,0,0,484,53.1,2.36,2.36,0,0,0,485.74,53.77Z" transform="translate(0 -2.13)"/><path d="M516.92,61.15h-8V8.57h8L530.6,44.72V8.57h8V61.15h-8.51L516.92,26.47Z" transform="translate(0 -2.13)"/><path d="M584.59,37.61V50.75a10.55,10.55,0,0,1-10.4,10.4h-.26a11,11,0,0,1-6.44-2v2h-8V4.61h8V29.22a11,11,0,0,1,6.44-2h.26a10.55,10.55,0,0,1,10.4,10.4Zm-8,13.75V37a2.39,2.39,0,0,0-.67-1.74,2.36,2.36,0,0,0-1.75-.67H569.9A2.3,2.3,0,0,0,567.49,37V51.36a2.3,2.3,0,0,0,2.41,2.41h4.29a2.36,2.36,0,0,0,1.75-.67A2.39,2.39,0,0,0,576.61,51.36Z" transform="translate(0 -2.13)"/><path d="M602.36,48.2l6.51-21h7.71l-16,50.5h-7.45l5.57-18L588.55,27.21h7.71Z" transform="translate(0 -2.13)"/><path d="M637.43,57.93V12.59a10.16,10.16,0,0,1,3-7.37,9.84,9.84,0,0,1,7.31-3.09h6.11V9.51h-6.11a2.18,2.18,0,0,0-1.64.74,2.51,2.51,0,0,0-.71,1.81v46.4a2.5,2.5,0,0,0,.67,1.78,2.24,2.24,0,0,0,1.68.71h6.11v7.37h-6.11a9.87,9.87,0,0,1-7.27-3.08A10,10,0,0,1,637.43,57.93Z" transform="translate(0 -2.13)"/><path d="M658.56,50.75V19a10,10,0,0,1,3.08-7.31A10,10,0,0,1,669,8.57h4.7A10,10,0,0,1,681,11.65,10,10,0,0,1,684,19v2.35h-8V18.36A2.3,2.3,0,0,0,673.65,16H669a2.3,2.3,0,0,0-2.41,2.41v33A2.3,2.3,0,0,0,669,53.77h4.7a2.3,2.3,0,0,0,2.41-2.41v-3h8v2.35a10.54,10.54,0,0,1-10.39,10.4H669a10.54,10.54,0,0,1-10.39-10.4Z" transform="translate(0 -2.13)"/><path d="M694.91,68.32H688.8V61h6.11a2.2,2.2,0,0,0,1.67-.71,2.46,2.46,0,0,0,.67-1.78V12.06a2.51,2.51,0,0,0-.7-1.81,2.18,2.18,0,0,0-1.64-.74H688.8V2.13h6.11a9.84,9.84,0,0,1,7.31,3.09,10.16,10.16,0,0,1,3,7.37V57.93a10,10,0,0,1-3.06,7.31A9.89,9.89,0,0,1,694.91,68.32Z" transform="translate(0 -2.13)"/><path d="M727.7,50.75V19a10,10,0,0,1,3.09-7.31,10,10,0,0,1,7.31-3.08h11.4V16H738.1a2.3,2.3,0,0,0-2.42,2.41v33a2.39,2.39,0,0,0,.67,1.74,2.36,2.36,0,0,0,1.75.67h4.69a2.31,2.31,0,0,0,2.42-2.41V38.28h-4.43V30.9h8.05A4.3,4.3,0,0,1,752,32.07a4.34,4.34,0,0,1,1.18,3.19V50.75a10.55,10.55,0,0,1-10.4,10.4H738.1a10.55,10.55,0,0,1-10.4-10.4Z" transform="translate(0 -2.13)"/><path d="M769.15,61.15h-8V8.57h8l13.68,36.15V8.57h8V61.15h-8.52L769.15,26.47Z" transform="translate(0 -2.13)"/><path d="M799.12,50.75V37.61a10.55,10.55,0,0,1,10.4-10.4h4.29a10.55,10.55,0,0,1,10.4,10.4V50.75a10.55,10.55,0,0,1-10.4,10.4h-4.29a10.55,10.55,0,0,1-10.4-10.4Zm10.4,3h4.29a2.32,2.32,0,0,0,1.74-.67,2.36,2.36,0,0,0,.68-1.74V37a2.36,2.36,0,0,0-.68-1.74,2.32,2.32,0,0,0-1.74-.67h-4.29a2.32,2.32,0,0,0-1.74.67A2.36,2.36,0,0,0,807.1,37V51.36a2.36,2.36,0,0,0,.68,1.74A2.32,2.32,0,0,0,809.52,53.77Z" transform="translate(0 -2.13)"/><path d="M830.38,50.75V45.66h8v5.7a2.3,2.3,0,0,0,2.41,2.41h5a2.46,2.46,0,0,0,1.78-.67,2.31,2.31,0,0,0,.71-1.74V40.49a2.26,2.26,0,0,0-.71-1.64,2.41,2.41,0,0,0-1.78-.71h-4.62a10,10,0,0,1-7.31-3.08,10,10,0,0,1-3.09-7.31V19a10,10,0,0,1,3.09-7.31,10,10,0,0,1,7.31-3.08h4.36a10,10,0,0,1,7.31,3.08A10,10,0,0,1,855.86,19v4.83h-8V18.36a2.29,2.29,0,0,0-.74-1.71,2.42,2.42,0,0,0-1.74-.7h-4.29a2.41,2.41,0,0,0-2.42,2.41v10a2.42,2.42,0,0,0,2.42,2.42h4.69a10,10,0,0,1,7.31,3.05,9.86,9.86,0,0,1,3.09,7.27v9.66a10.55,10.55,0,0,1-10.4,10.4h-5a10.54,10.54,0,0,1-10.39-10.4Z" transform="translate(0 -2.13)"/></svg>