<svg xmlns="http://www.w3.org/2000/svg" width="856.2" height="75.58" viewBox="0 0 856.2 75.58"><title>GNoSTheme</title><path d="M0,57.73V5.15H15.09A10,10,0,0,1,22.4,8.24a10,10,0,0,1,3.08,7.31V47.33a10,10,0,0,1-3.08,7.31,10,10,0,0,1-7.31,3.09Zm8-7.38h7.11a2.3,2.3,0,0,0,2.41-2.41v-33a2.3,2.3,0,0,0-2.41-2.41H8Z" transform="translate(0 1.29)"/><path d="M41.58,57.73h-8V5.15h8Z" transform="translate(0 1.29)"/><path d="M49.09,47.33V42.24h8v5.7a2.3,2.3,0,0,0,2.41,2.41h5a2.45,2.45,0,0,0,1.77-.67,2.31,2.31,0,0,0,.71-1.74V37.07a2.26,2.26,0,0,0-.71-1.64,2.4,2.4,0,0,0-1.77-.7H59.82a10,10,0,0,1-7.31-3.09,10,10,0,0,1-3.09-7.31V15.55a10,10,0,0,1,3.09-7.31,10,10,0,0,1,7.31-3.09h4.36a10,10,0,0,1,7.31,3.09,10,10,0,0,1,3.08,7.31v4.82h-8V14.94a2.28,2.28,0,0,0-.73-1.71,2.46,2.46,0,0,0-1.75-.7H59.82a2.39,2.39,0,0,0-2.41,2.41v10a2.41,2.41,0,0,0,2.41,2.42h4.69a10,10,0,0,1,7.31,3,9.87,9.87,0,0,1,3.09,7.28v9.65a10.55,10.55,0,0,1-10.4,10.4h-5a10.54,10.54,0,0,1-10.39-10.4Z" transform="translate(0 1.29)"/><path d="M80.88,47.33V15.55A10,10,0,0,1,84,8.24a10,10,0,0,1,7.31-3.09H96a10,10,0,0,1,7.31,3.09,10,10,0,0,1,3.08,7.31v2.34h-8v-3A2.3,2.3,0,0,0,96,12.53h-4.7a2.3,2.3,0,0,0-2.41,2.41v33a2.3,2.3,0,0,0,2.41,2.41H96a2.3,2.3,0,0,0,2.41-2.41V45h8v2.34A10.54,10.54,0,0,1,96,57.73h-4.7a10.54,10.54,0,0,1-10.39-10.4Z" transform="translate(0 1.29)"/><path d="M113,47.33V15.55a10,10,0,0,1,3.09-7.31,10,10,0,0,1,7.31-3.09h4.69a10,10,0,0,1,7.31,3.09,10,10,0,0,1,3.09,7.31V47.33a10.55,10.55,0,0,1-10.4,10.4H123.4A10.55,10.55,0,0,1,113,47.33Zm10.4,3h4.69a2.3,2.3,0,0,0,2.41-2.41v-33a2.3,2.3,0,0,0-2.41-2.41H123.4A2.3,2.3,0,0,0,121,14.94v33a2.3,2.3,0,0,0,2.42,2.41Z" transform="translate(0 1.29)"/><path d="M172.08,38.08V57.73h-8V37.47a2.35,2.35,0,0,0-.67-1.74,2.38,2.38,0,0,0-1.74-.67h-7.11V57.73h-8V5.15h14.75a10,10,0,0,1,7.31,3.09,10,10,0,0,1,3.09,7.31v9.12a9.86,9.86,0,0,1-2.28,6.5A10.1,10.1,0,0,1,172.08,38.08Zm-17.5-10.4h6.77a2.3,2.3,0,0,0,2.42-2.41V14.94a2.39,2.39,0,0,0-.67-1.74,2.36,2.36,0,0,0-1.75-.67h-6.77Z" transform="translate(0 1.29)"/><path d="M180.2,57.73V5.15h15.09a10,10,0,0,1,7.31,3.09,10,10,0,0,1,3.08,7.31V47.33a10.54,10.54,0,0,1-10.39,10.4Zm8-7.38h7.11a2.3,2.3,0,0,0,2.41-2.41v-33a2.3,2.3,0,0,0-2.41-2.41h-7.11Z" transform="translate(0 1.29)"/><path d="M224.33,57.73V15.55a10,10,0,0,1,3.08-7.31,10,10,0,0,1,7.31-3.09h4.7a10,10,0,0,1,7.31,3.09,10,10,0,0,1,3.08,7.31V57.73h-8V34.86h-9.52V57.73Zm8-30.25h9.52V14.94a2.3,2.3,0,0,0-2.41-2.41h-4.7a2.3,2.3,0,0,0-2.41,2.41Z" transform="translate(0 1.29)"/><path d="M257.92,57.73V5.15H273a10,10,0,0,1,7.31,3.09,10,10,0,0,1,3.09,7.31v9.52a10,10,0,0,1-3.09,7.31A10,10,0,0,1,273,35.46h-7.1V57.73Zm8-29.64H273a2.3,2.3,0,0,0,2.42-2.42V14.94a2.39,2.39,0,0,0-.67-1.74,2.36,2.36,0,0,0-1.75-.67h-7.1Z" transform="translate(0 1.29)"/><path d="M291.52,57.73V5.15h15.09a10,10,0,0,1,7.31,3.09A10,10,0,0,1,317,15.55v9.52a10,10,0,0,1-3.09,7.31,10,10,0,0,1-7.31,3.08H299.5V57.73Zm8-29.64h7.11A2.3,2.3,0,0,0,309,25.67V14.94a2.39,2.39,0,0,0-.67-1.74,2.36,2.36,0,0,0-1.75-.67H299.5Z" transform="translate(0 1.29)"/><path d="M342.56,57.73H325.12V5.15h8v45.2h9.46Z" transform="translate(0 1.29)"/><path d="M358.32,57.73h-8V5.15h8Z" transform="translate(0 1.29)"/><path d="M366.43,47.33V15.55a10,10,0,0,1,3.09-7.31,10,10,0,0,1,7.31-3.09h4.69a10,10,0,0,1,7.31,3.09,10,10,0,0,1,3.09,7.31v2.34h-8v-3a2.39,2.39,0,0,0-.67-1.74,2.36,2.36,0,0,0-1.75-.67h-4.69a2.36,2.36,0,0,0-1.75.67,2.39,2.39,0,0,0-.67,1.74v33a2.39,2.39,0,0,0,.67,1.74,2.36,2.36,0,0,0,1.75.67h4.69a2.36,2.36,0,0,0,1.75-.67,2.39,2.39,0,0,0,.67-1.74V45h8v2.34a10.55,10.55,0,0,1-10.4,10.4h-4.69a10.55,10.55,0,0,1-10.4-10.4Z" transform="translate(0 1.29)"/><path d="M398.56,57.73V15.55a10,10,0,0,1,3.08-7.31A10,10,0,0,1,409,5.15h4.69A10,10,0,0,1,421,8.24,10,10,0,0,1,424,15.55V57.73h-8V34.86h-9.52V57.73Zm8-30.25h9.52V14.94a2.39,2.39,0,0,0-.67-1.74,2.36,2.36,0,0,0-1.75-.67H409a2.32,2.32,0,0,0-1.74.67,2.35,2.35,0,0,0-.67,1.74Z" transform="translate(0 1.29)"/><path d="M444.83,57.73h-8V12.53h-8.52V5.15h25.08v7.38h-8.58Z" transform="translate(0 1.29)"/><path d="M467.23,57.73h-8V5.15h8Z" transform="translate(0 1.29)"/><path d="M475.34,47.33V15.55a10,10,0,0,1,3.09-7.31,10,10,0,0,1,7.31-3.09h4.69a10,10,0,0,1,7.31,3.09,10,10,0,0,1,3.09,7.31V47.33a10.55,10.55,0,0,1-10.4,10.4h-4.69a10.55,10.55,0,0,1-10.4-10.4Zm10.4,3h4.69a2.32,2.32,0,0,0,1.74-.67,2.36,2.36,0,0,0,.68-1.74v-33a2.36,2.36,0,0,0-.68-1.74,2.32,2.32,0,0,0-1.74-.67h-4.69a2.36,2.36,0,0,0-1.75.67,2.39,2.39,0,0,0-.67,1.74v33a2.39,2.39,0,0,0,.67,1.74A2.36,2.36,0,0,0,485.74,50.35Z" transform="translate(0 1.29)"/><path d="M516.92,57.73h-8V5.15h8L530.6,41.3V5.15h8V57.73h-8.51L516.92,23.06Z" transform="translate(0 1.29)"/><path d="M584.59,34.19V47.33a10.55,10.55,0,0,1-10.4,10.4h-.26a11,11,0,0,1-6.44-2v2h-8V1.19h8V25.81a10.94,10.94,0,0,1,6.44-2h.26a10,10,0,0,1,7.31,3.09A10,10,0,0,1,584.59,34.19Zm-8,13.75V33.59a2.3,2.3,0,0,0-2.42-2.42H569.9a2.3,2.3,0,0,0-2.41,2.42V47.94a2.3,2.3,0,0,0,2.41,2.41h4.29a2.36,2.36,0,0,0,1.75-.67A2.39,2.39,0,0,0,576.61,47.94Z" transform="translate(0 1.29)"/><path d="M602.36,44.79l6.51-21h7.71l-16,50.5h-7.45l5.57-18L588.55,23.79h7.71Z" transform="translate(0 1.29)"/><path d="M637.43,54.51V9.17a10.16,10.16,0,0,1,3-7.37,9.84,9.84,0,0,1,7.31-3.09h6.11V6.09h-6.11a2.22,2.22,0,0,0-1.64.74,2.51,2.51,0,0,0-.71,1.81V55.05a2.5,2.5,0,0,0,.67,1.77,2.24,2.24,0,0,0,1.68.71h6.11V64.9h-6.11a9.84,9.84,0,0,1-7.27-3.08A10,10,0,0,1,637.43,54.51Z" transform="translate(0 1.29)"/><path d="M658.56,47.33V15.55a10,10,0,0,1,3.08-7.31A10,10,0,0,1,669,5.15h4.7A10,10,0,0,1,681,8.24,10,10,0,0,1,684,15.55v2.34h-8v-3a2.3,2.3,0,0,0-2.41-2.41H669a2.3,2.3,0,0,0-2.41,2.41v33A2.3,2.3,0,0,0,669,50.35h4.7a2.3,2.3,0,0,0,2.41-2.41V45h8v2.34a10.54,10.54,0,0,1-10.39,10.4H669a10.54,10.54,0,0,1-10.39-10.4Z" transform="translate(0 1.29)"/><path d="M694.91,64.9H688.8V57.53h6.11a2.2,2.2,0,0,0,1.67-.71,2.45,2.45,0,0,0,.67-1.77V8.64a2.51,2.51,0,0,0-.7-1.81,2.22,2.22,0,0,0-1.64-.74H688.8V-1.29h6.11a9.84,9.84,0,0,1,7.31,3.09,10.16,10.16,0,0,1,3,7.37V54.51a10,10,0,0,1-3.06,7.31A9.85,9.85,0,0,1,694.91,64.9Z" transform="translate(0 1.29)"/><path d="M727.7,47.33V15.55a10,10,0,0,1,3.09-7.31,10,10,0,0,1,7.31-3.09h11.4v7.38H738.1a2.36,2.36,0,0,0-1.75.67,2.39,2.39,0,0,0-.67,1.74v33a2.39,2.39,0,0,0,.67,1.74,2.36,2.36,0,0,0,1.75.67h4.69a2.31,2.31,0,0,0,2.42-2.41V34.86h-4.43V27.48h8.05a4.07,4.07,0,0,1,4.36,4.36V47.33a10.55,10.55,0,0,1-10.4,10.4H738.1a10.55,10.55,0,0,1-10.4-10.4Z" transform="translate(0 1.29)"/><path d="M769.15,57.73h-8V5.15h8L782.83,41.3V5.15h8V57.73h-8.52L769.15,23.06Z" transform="translate(0 1.29)"/><path d="M799.12,47.33V34.19a10.55,10.55,0,0,1,10.4-10.4h4.29a10.55,10.55,0,0,1,10.4,10.4V47.33a10.55,10.55,0,0,1-10.4,10.4h-4.29a10.55,10.55,0,0,1-10.4-10.4Zm10.4,3h4.29a2.32,2.32,0,0,0,1.74-.67,2.36,2.36,0,0,0,.68-1.74V33.59a2.31,2.31,0,0,0-2.42-2.42h-4.29a2.31,2.31,0,0,0-2.42,2.42V47.94a2.36,2.36,0,0,0,.68,1.74A2.32,2.32,0,0,0,809.52,50.35Z" transform="translate(0 1.29)"/><path d="M830.38,47.33V42.24h8v5.7a2.3,2.3,0,0,0,2.41,2.41h5a2.46,2.46,0,0,0,1.78-.67,2.31,2.31,0,0,0,.71-1.74V37.07a2.26,2.26,0,0,0-.71-1.64,2.4,2.4,0,0,0-1.78-.7h-4.62a10,10,0,0,1-7.31-3.09,10,10,0,0,1-3.09-7.31V15.55a10,10,0,0,1,3.09-7.31,10,10,0,0,1,7.31-3.09h4.36a10,10,0,0,1,7.31,3.09,10,10,0,0,1,3.08,7.31v4.82h-8V14.94a2.29,2.29,0,0,0-.74-1.71,2.42,2.42,0,0,0-1.74-.7h-4.29a2.41,2.41,0,0,0-2.42,2.41v10a2.42,2.42,0,0,0,2.42,2.42h4.69a10.06,10.06,0,0,1,7.31,3,9.87,9.87,0,0,1,3.09,7.28v9.65a10.55,10.55,0,0,1-10.4,10.4h-5a10.54,10.54,0,0,1-10.39-10.4Z" transform="translate(0 1.29)"/></svg>