<svg xmlns="http://www.w3.org/2000/svg" viewBox="0 0 856.2 75.58"><title>GNoSTheme</title><path d="M0,52.67V.09H15.09A10,10,0,0,1,22.4,3.17a10,10,0,0,1,3.08,7.31V42.27a10,10,0,0,1-3.08,7.31,10,10,0,0,1-7.31,3.09Zm8-7.38h7.11a2.3,2.3,0,0,0,2.41-2.42v-33a2.3,2.3,0,0,0-2.41-2.42H8Z" transform="translate(0 6.35)"/><path d="M41.58,52.67h-8V.09h8Z" transform="translate(0 6.35)"/><path d="M49.09,42.27v-5.1h8v5.7a2.3,2.3,0,0,0,2.41,2.42h5a2.45,2.45,0,0,0,1.77-.67,2.31,2.31,0,0,0,.71-1.75V32a2.24,2.24,0,0,0-.71-1.64,2.4,2.4,0,0,0-1.77-.71H59.82a10,10,0,0,1-7.31-3.08,10,10,0,0,1-3.09-7.31V10.48a10,10,0,0,1,3.09-7.31A10,10,0,0,1,59.82.09h4.36a10,10,0,0,1,7.31,3.08,10,10,0,0,1,3.08,7.31v4.83h-8V9.88a2.28,2.28,0,0,0-.73-1.71,2.47,2.47,0,0,0-1.75-.71H59.82a2.41,2.41,0,0,0-2.41,2.42v10a2.41,2.41,0,0,0,2.41,2.42h4.69a10,10,0,0,1,7.31,3.05,9.86,9.86,0,0,1,3.09,7.27v9.66a10.55,10.55,0,0,1-10.4,10.4h-5a10.54,10.54,0,0,1-10.39-10.4Z" transform="translate(0 6.35)"/><path d="M80.88,42.27V10.48A10,10,0,0,1,84,3.17,10,10,0,0,1,91.27.09H96a10,10,0,0,1,7.31,3.08,10,10,0,0,1,3.08,7.31v2.35h-8V9.88a2.36,2.36,0,0,0-.67-1.75A2.39,2.39,0,0,0,96,7.46h-4.7a2.39,2.39,0,0,0-1.74.67,2.36,2.36,0,0,0-.67,1.75v33a2.3,2.3,0,0,0,2.41,2.42H96a2.3,2.3,0,0,0,2.41-2.42V39.92h8v2.35A10.54,10.54,0,0,1,96,52.67h-4.7a10.54,10.54,0,0,1-10.39-10.4Z" transform="translate(0 6.35)"/><path d="M113,42.27V10.48a10,10,0,0,1,3.09-7.31A10,10,0,0,1,123.4.09h4.69a10,10,0,0,1,7.31,3.08,10,10,0,0,1,3.09,7.31V42.27a10.55,10.55,0,0,1-10.4,10.4H123.4A10.55,10.55,0,0,1,113,42.27Zm10.4,3h4.69a2.3,2.3,0,0,0,2.41-2.42v-33a2.3,2.3,0,0,0-2.41-2.42H123.4a2.4,2.4,0,0,0-1.75.67A2.36,2.36,0,0,0,121,9.88v33a2.3,2.3,0,0,0,2.42,2.42Z" transform="translate(0 6.35)"/><path d="M172.08,33V52.67h-8V32.41A2.3,2.3,0,0,0,161.69,30h-7.11V52.67h-8V.09h14.75a10,10,0,0,1,7.31,3.08,10,10,0,0,1,3.09,7.31V19.6a9.87,9.87,0,0,1-2.28,6.51A10.1,10.1,0,0,1,172.08,33Zm-17.5-10.4h6.77A2.36,2.36,0,0,0,163.1,22a2.39,2.39,0,0,0,.67-1.74V9.88a2.3,2.3,0,0,0-2.42-2.42h-6.77Z" transform="translate(0 6.35)"/><path d="M180.2,52.67V.09h15.09a10,10,0,0,1,7.31,3.08,10,10,0,0,1,3.08,7.31V42.27a10.54,10.54,0,0,1-10.39,10.4Zm8-7.38h7.11a2.3,2.3,0,0,0,2.41-2.42v-33A2.36,2.36,0,0,0,197,8.13a2.39,2.39,0,0,0-1.74-.67h-7.11Z" transform="translate(0 6.35)"/><path d="M224.33,52.67V10.48a10,10,0,0,1,3.08-7.31A10,10,0,0,1,234.72.09h4.7a10,10,0,0,1,7.31,3.08,10,10,0,0,1,3.08,7.31V52.67h-8V29.8h-9.52V52.67Zm8-30.25h9.52V9.88a2.36,2.36,0,0,0-.67-1.75,2.39,2.39,0,0,0-1.74-.67h-4.7a2.3,2.3,0,0,0-2.41,2.42Z" transform="translate(0 6.35)"/><path d="M257.92,52.67V.09H273a10,10,0,0,1,7.31,3.08,10,10,0,0,1,3.09,7.31V20a10,10,0,0,1-3.09,7.31A10,10,0,0,1,273,30.4h-7.1V52.67Zm8-29.65H273a2.3,2.3,0,0,0,2.42-2.41V9.88A2.3,2.3,0,0,0,273,7.46h-7.1Z" transform="translate(0 6.35)"/><path d="M291.52,52.67V.09h15.09a10,10,0,0,1,7.31,3.08A10,10,0,0,1,317,10.48V20a10,10,0,0,1-3.09,7.31,10,10,0,0,1-7.31,3.09H299.5V52.67Zm8-29.65h7.11A2.3,2.3,0,0,0,309,20.61V9.88a2.3,2.3,0,0,0-2.42-2.42H299.5Z" transform="translate(0 6.35)"/><path d="M342.56,52.67H325.12V.09h8v45.2h9.46Z" transform="translate(0 6.35)"/><path d="M358.32,52.67h-8V.09h8Z" transform="translate(0 6.35)"/><path d="M366.43,42.27V10.48a10,10,0,0,1,3.09-7.31A10,10,0,0,1,376.83.09h4.69a10,10,0,0,1,7.31,3.08,10,10,0,0,1,3.09,7.31v2.35h-8V9.88a2.3,2.3,0,0,0-2.42-2.42h-4.69a2.3,2.3,0,0,0-2.42,2.42v33a2.4,2.4,0,0,0,.67,1.75,2.36,2.36,0,0,0,1.75.67h4.69a2.36,2.36,0,0,0,1.75-.67,2.4,2.4,0,0,0,.67-1.75V39.92h8v2.35a10.55,10.55,0,0,1-10.4,10.4h-4.69a10.55,10.55,0,0,1-10.4-10.4Z" transform="translate(0 6.35)"/><path d="M398.56,52.67V10.48a10,10,0,0,1,3.08-7.31A10,10,0,0,1,409,.09h4.69A10,10,0,0,1,421,3.17,10,10,0,0,1,424,10.48V52.67h-8V29.8h-9.52V52.67Zm8-30.25h9.52V9.88a2.3,2.3,0,0,0-2.42-2.42H409a2.3,2.3,0,0,0-2.41,2.42Z" transform="translate(0 6.35)"/><path d="M444.83,52.67h-8V7.46h-8.52V.09h25.08V7.46h-8.58Z" transform="translate(0 6.35)"/><path d="M467.23,52.67h-8V.09h8Z" transform="translate(0 6.35)"/><path d="M475.34,42.27V10.48a10,10,0,0,1,3.09-7.31A10,10,0,0,1,485.74.09h4.69a10,10,0,0,1,7.31,3.08,10,10,0,0,1,3.09,7.31V42.27a10.55,10.55,0,0,1-10.4,10.4h-4.69a10.55,10.55,0,0,1-10.4-10.4Zm10.4,3h4.69a2.32,2.32,0,0,0,1.74-.67,2.37,2.37,0,0,0,.68-1.75v-33a2.31,2.31,0,0,0-2.42-2.42h-4.69a2.3,2.3,0,0,0-2.42,2.42v33a2.4,2.4,0,0,0,.67,1.75A2.36,2.36,0,0,0,485.74,45.29Z" transform="translate(0 6.35)"/><path d="M516.92,52.67h-8V.09h8L530.6,36.23V.09h8V52.67h-8.51L516.92,18Z" transform="translate(0 6.35)"/><path d="M584.59,29.13V42.27a10.55,10.55,0,0,1-10.4,10.4h-.26a11,11,0,0,1-6.44-2v2h-8V-3.87h8V20.74a11,11,0,0,1,6.44-2h.26a10,10,0,0,1,7.31,3.09A10,10,0,0,1,584.59,29.13Zm-8,13.74V28.52a2.39,2.39,0,0,0-.67-1.74,2.36,2.36,0,0,0-1.75-.67H569.9a2.3,2.3,0,0,0-2.41,2.41V42.87a2.3,2.3,0,0,0,2.41,2.42h4.29a2.36,2.36,0,0,0,1.75-.67A2.4,2.4,0,0,0,576.61,42.87Z" transform="translate(0 6.35)"/><path d="M602.36,39.72l6.51-21h7.71l-16,50.5h-7.45l5.57-18L588.55,18.73h7.71Z" transform="translate(0 6.35)"/><path d="M637.43,49.45V4.11a10.2,10.2,0,0,1,3-7.38,9.87,9.87,0,0,1,7.31-3.08h6.11V1h-6.11a2.21,2.21,0,0,0-1.64.73,2.55,2.55,0,0,0-.71,1.81V50a2.5,2.5,0,0,0,.67,1.78,2.23,2.23,0,0,0,1.68.7h6.11v7.38h-6.11a9.87,9.87,0,0,1-7.27-3.08A10,10,0,0,1,637.43,49.45Z" transform="translate(0 6.35)"/><path d="M658.56,42.27V10.48a10,10,0,0,1,3.08-7.31A10,10,0,0,1,669,.09h4.7A10,10,0,0,1,681,3.17,10,10,0,0,1,684,10.48v2.35h-8V9.88a2.36,2.36,0,0,0-.67-1.75,2.39,2.39,0,0,0-1.74-.67H669a2.39,2.39,0,0,0-1.74.67,2.36,2.36,0,0,0-.67,1.75v33A2.3,2.3,0,0,0,669,45.29h4.7a2.3,2.3,0,0,0,2.41-2.42V39.92h8v2.35a10.54,10.54,0,0,1-10.39,10.4H669a10.54,10.54,0,0,1-10.39-10.4Z" transform="translate(0 6.35)"/><path d="M694.91,59.84H688.8V52.46h6.11a2.19,2.19,0,0,0,1.67-.7,2.46,2.46,0,0,0,.67-1.78V3.57a2.54,2.54,0,0,0-.7-1.81A2.21,2.21,0,0,0,694.91,1H688.8V-6.35h6.11a9.87,9.87,0,0,1,7.31,3.08,10.2,10.2,0,0,1,3,7.38V49.45a10,10,0,0,1-3.06,7.31A9.89,9.89,0,0,1,694.91,59.84Z" transform="translate(0 6.35)"/><path d="M727.7,42.27V10.48a10,10,0,0,1,3.09-7.31A10,10,0,0,1,738.1.09h11.4V7.46H738.1a2.3,2.3,0,0,0-2.42,2.42v33a2.4,2.4,0,0,0,.67,1.75,2.36,2.36,0,0,0,1.75.67h4.69a2.34,2.34,0,0,0,1.74-.67,2.37,2.37,0,0,0,.68-1.75V29.8h-4.43V22.42h8.05A4.3,4.3,0,0,1,752,23.59a4.34,4.34,0,0,1,1.18,3.19V42.27a10.55,10.55,0,0,1-10.4,10.4H738.1a10.55,10.55,0,0,1-10.4-10.4Z" transform="translate(0 6.35)"/><path d="M769.15,52.67h-8V.09h8l13.68,36.14V.09h8V52.67h-8.52L769.15,18Z" transform="translate(0 6.35)"/><path d="M799.12,42.27V29.13a10,10,0,0,1,3.09-7.31,10,10,0,0,1,7.31-3.09h4.29a10,10,0,0,1,7.31,3.09,10,10,0,0,1,3.09,7.31V42.27a10.55,10.55,0,0,1-10.4,10.4h-4.29a10.55,10.55,0,0,1-10.4-10.4Zm10.4,3h4.29a2.32,2.32,0,0,0,1.74-.67,2.37,2.37,0,0,0,.68-1.75V28.52a2.36,2.36,0,0,0-.68-1.74,2.32,2.32,0,0,0-1.74-.67h-4.29a2.32,2.32,0,0,0-1.74.67,2.36,2.36,0,0,0-.68,1.74V42.87a2.37,2.37,0,0,0,.68,1.75A2.32,2.32,0,0,0,809.52,45.29Z" transform="translate(0 6.35)"/><path d="M830.38,42.27v-5.1h8v5.7a2.3,2.3,0,0,0,2.41,2.42h5a2.46,2.46,0,0,0,1.78-.67,2.31,2.31,0,0,0,.71-1.75V32a2.24,2.24,0,0,0-.71-1.64,2.41,2.41,0,0,0-1.78-.71h-4.62a10,10,0,0,1-7.31-3.08,10,10,0,0,1-3.09-7.31V10.48a10,10,0,0,1,3.09-7.31A10,10,0,0,1,841.11.09h4.36a10,10,0,0,1,7.31,3.08,10,10,0,0,1,3.08,7.31v4.83h-8V9.88a2.29,2.29,0,0,0-.74-1.71,2.43,2.43,0,0,0-1.74-.71h-4.29a2.42,2.42,0,0,0-2.42,2.42v10a2.42,2.42,0,0,0,2.42,2.42h4.69a10,10,0,0,1,7.31,3.05,9.86,9.86,0,0,1,3.09,7.27v9.66a10.55,10.55,0,0,1-10.4,10.4h-5a10.54,10.54,0,0,1-10.39-10.4Z" transform="translate(0 6.35)"/></svg>