<svg xmlns="http://www.w3.org/2000/svg" width="819.59" height="50.4" viewBox="0 0 819.59 50.4"><title>GNoSTheme</title><path d="M4.74,49.94V-.4H19.19a9.56,9.56,0,0,1,7,3,9.57,9.57,0,0,1,3,7V40a9.57,9.57,0,0,1-3,7,9.56,9.56,0,0,1-7,3Zm7.64-7.07h6.81a2.26,2.26,0,0,0,1.67-.64,2.29,2.29,0,0,0,.64-1.67V9a2.29,2.29,0,0,0-.64-1.67,2.26,2.26,0,0,0-1.67-.64H12.38Z" transform="translate(-4.74 0.4)"/><path d="M44.54,49.94H36.9V-.4h7.64Z" transform="translate(-4.74 0.4)"/><path d="M51.73,40V35.11h7.64v5.45A2.29,2.29,0,0,0,60,42.23a2.26,2.26,0,0,0,1.67.64h4.75a2.33,2.33,0,0,0,1.7-.64,2.2,2.2,0,0,0,.68-1.67V30.16a2.15,2.15,0,0,0-.68-1.57,2.28,2.28,0,0,0-1.7-.67H62a9.54,9.54,0,0,1-7-3,9.56,9.56,0,0,1-3-7V9.56a9.57,9.57,0,0,1,3-7,9.54,9.54,0,0,1,7-3h4.18a9.54,9.54,0,0,1,7,3,9.57,9.57,0,0,1,3,7v4.62H68.49V9a2.2,2.2,0,0,0-.71-1.64,2.33,2.33,0,0,0-1.67-.67H62a2.21,2.21,0,0,0-1.63.67A2.24,2.24,0,0,0,59.69,9v9.56A2.3,2.3,0,0,0,62,20.85h4.5a9.66,9.66,0,0,1,7,2.92,9.5,9.5,0,0,1,3,7V40a10.09,10.09,0,0,1-10,10H61.68a10.11,10.11,0,0,1-10-10Z" transform="translate(-4.74 0.4)"/><path d="M82.16,40V9.56a9.6,9.6,0,0,1,3-7,9.58,9.58,0,0,1,7-3h4.5a9.56,9.56,0,0,1,7,3,9.57,9.57,0,0,1,3,7V11.8H98.92V9a2.29,2.29,0,0,0-.64-1.67,2.26,2.26,0,0,0-1.67-.64h-4.5A2.2,2.2,0,0,0,89.8,9V40.56a2.2,2.2,0,0,0,2.31,2.31h4.5a2.26,2.26,0,0,0,1.67-.64,2.29,2.29,0,0,0,.64-1.67V37.74h7.64V40a10.11,10.11,0,0,1-10,10h-4.5a10.09,10.09,0,0,1-10-10Z" transform="translate(-4.74 0.4)"/><path d="M112.91,40V9.56a9.6,9.6,0,0,1,3-7,9.58,9.58,0,0,1,7-3h4.5a9.56,9.56,0,0,1,7,3,9.57,9.57,0,0,1,3,7V40a10.11,10.11,0,0,1-10,10h-4.5a10.09,10.09,0,0,1-10-10Zm10,2.89h4.5a2.22,2.22,0,0,0,1.66-.64,2.25,2.25,0,0,0,.65-1.67V9A2.25,2.25,0,0,0,129,7.31a2.22,2.22,0,0,0-1.66-.64h-4.5A2.2,2.2,0,0,0,120.55,9V40.56a2.2,2.2,0,0,0,2.31,2.31Z" transform="translate(-4.74 0.4)"/><path d="M169.47,31.13V49.94h-7.64V30.55a2.29,2.29,0,0,0-.64-1.67,2.26,2.26,0,0,0-1.67-.64h-6.81v21.7h-7.64V-.4H159.2a9.54,9.54,0,0,1,7,3,9.57,9.57,0,0,1,3,7v8.73A9.46,9.46,0,0,1,167,24.51,9.72,9.72,0,0,1,169.47,31.13Zm-16.76-10h6.49a2.2,2.2,0,0,0,2.31-2.31V9a2.29,2.29,0,0,0-.64-1.67,2.26,2.26,0,0,0-1.67-.64h-6.49Z" transform="translate(-4.74 0.4)"/><path d="M177.24,49.94V-.4h14.44a9.57,9.57,0,0,1,7,3,9.56,9.56,0,0,1,2.95,7V40a10.09,10.09,0,0,1-9.95,10Zm7.64-7.07h6.8A2.2,2.2,0,0,0,194,40.56V9a2.2,2.2,0,0,0-2.31-2.31h-6.8Z" transform="translate(-4.74 0.4)"/><path d="M219.48,49.94V9.56a9.56,9.56,0,0,1,3-7,9.57,9.57,0,0,1,7-3h4.49a9.57,9.57,0,0,1,7,3,9.56,9.56,0,0,1,3,7V49.94h-7.64V28h-9.11v21.9Zm7.64-29h9.11V9a2.2,2.2,0,0,0-2.31-2.31h-4.49A2.2,2.2,0,0,0,227.12,9Z" transform="translate(-4.74 0.4)"/><path d="M251.64,49.94V-.4h14.44a9.57,9.57,0,0,1,7,3,9.56,9.56,0,0,1,2.95,7v9.11a9.56,9.56,0,0,1-2.95,7,9.56,9.56,0,0,1-7,2.95h-6.8V49.94Zm7.64-28.38h6.8a2.2,2.2,0,0,0,2.31-2.31V9a2.2,2.2,0,0,0-2.31-2.31h-6.8Z" transform="translate(-4.74 0.4)"/><path d="M283.8,49.94V-.4h14.45a9.56,9.56,0,0,1,7,3,9.57,9.57,0,0,1,3,7v9.11a9.57,9.57,0,0,1-3,7,9.55,9.55,0,0,1-7,2.95h-6.81V49.94Zm7.64-28.38h6.81a2.22,2.22,0,0,0,1.66-.64,2.27,2.27,0,0,0,.65-1.67V9a2.25,2.25,0,0,0-.65-1.67,2.22,2.22,0,0,0-1.66-.64h-6.81Z" transform="translate(-4.74 0.4)"/><path d="M332.65,49.94H316V-.4h7.64V42.87h9Z" transform="translate(-4.74 0.4)"/><path d="M347.74,49.94H340.1V-.4h7.64Z" transform="translate(-4.74 0.4)"/><path d="M355.51,40V9.56a9.56,9.56,0,0,1,2.95-7,9.57,9.57,0,0,1,7-3H370a9.57,9.57,0,0,1,7,3,9.56,9.56,0,0,1,2.95,7V11.8h-7.64V9A2.2,2.2,0,0,0,370,6.67h-4.49A2.2,2.2,0,0,0,363.15,9V40.56a2.2,2.2,0,0,0,2.31,2.31H370a2.2,2.2,0,0,0,2.31-2.31V37.74h7.64V40a10.09,10.09,0,0,1-9.95,10h-4.49a10.09,10.09,0,0,1-9.95-10Z" transform="translate(-4.74 0.4)"/><path d="M386.26,49.94V9.56a9.56,9.56,0,0,1,2.95-7,9.57,9.57,0,0,1,7-3h4.49a9.57,9.57,0,0,1,7,3,9.56,9.56,0,0,1,2.95,7V49.94H403V28H393.9v21.9Zm7.64-29H403V9a2.2,2.2,0,0,0-2.31-2.31h-4.49A2.2,2.2,0,0,0,393.9,9Z" transform="translate(-4.74 0.4)"/><path d="M430.55,49.94h-7.64V6.67h-8.15V-.4h24V6.67h-8.22Z" transform="translate(-4.74 0.4)"/><path d="M452,49.94h-7.64V-.4H452Z" transform="translate(-4.74 0.4)"/><path d="M459.76,40V9.56a9.56,9.56,0,0,1,2.95-7,9.58,9.58,0,0,1,7-3h4.5a9.56,9.56,0,0,1,7,3,9.57,9.57,0,0,1,3,7V40a10.11,10.11,0,0,1-10,10h-4.5a10.09,10.09,0,0,1-9.95-10Zm9.95,2.89h4.5a2.22,2.22,0,0,0,1.66-.64,2.25,2.25,0,0,0,.65-1.67V9a2.25,2.25,0,0,0-.65-1.67,2.22,2.22,0,0,0-1.66-.64h-4.5A2.2,2.2,0,0,0,467.4,9V40.56a2.2,2.2,0,0,0,2.31,2.31Z" transform="translate(-4.74 0.4)"/><path d="M499.56,49.94h-7.64V-.4h7.64l13.1,34.61V-.4h7.64V49.94h-8.15L499.56,16.75Z" transform="translate(-4.74 0.4)"/><path d="M564.34,27.4V40a10.11,10.11,0,0,1-10,10h-.26A10.54,10.54,0,0,1,548,48v1.93h-7.64V0H548V19.38a10.47,10.47,0,0,1,6.16-1.93h.26a9.57,9.57,0,0,1,7,2.95A9.58,9.58,0,0,1,564.34,27.4ZM556.7,40.56V26.82a2.21,2.21,0,0,0-2.31-2.31h-4.11a2.25,2.25,0,0,0-1.67.65,2.22,2.22,0,0,0-.64,1.66V40.56a2.2,2.2,0,0,0,2.31,2.31h4.11a2.26,2.26,0,0,0,1.67-.64A2.29,2.29,0,0,0,556.7,40.56Z" transform="translate(-4.74 0.4)"/><path d="M584.22,28.17l3.36-10.72H595L584.64,50h-7.13l3.24-10.79-8.41-21.76h7.38Z" transform="translate(-4.74 0.4)"/><path d="M614.92,40.05V10A9.78,9.78,0,0,1,617.81,3a9.43,9.43,0,0,1,7-2.95h5.84V7.06h-5.84a2.11,2.11,0,0,0-1.57.71,2.42,2.42,0,0,0-.68,1.73V40.56a2.39,2.39,0,0,0,.64,1.7,2.14,2.14,0,0,0,1.61.68h5.84V50h-5.84a9.5,9.5,0,0,1-7-3A9.64,9.64,0,0,1,614.92,40.05Z" transform="translate(-4.74 0.4)"/><path d="M635.14,40V9.56a9.57,9.57,0,0,1,3-7,9.57,9.57,0,0,1,7-3h4.49a9.57,9.57,0,0,1,7,3,9.6,9.6,0,0,1,2.95,7V11.8H651.9V9a2.2,2.2,0,0,0-2.31-2.31H645.1A2.21,2.21,0,0,0,642.78,9V40.56a2.21,2.21,0,0,0,2.32,2.31h4.49a2.2,2.2,0,0,0,2.31-2.31V37.74h7.64V40a10.09,10.09,0,0,1-9.95,10H645.1a10.11,10.11,0,0,1-10-10Z" transform="translate(-4.74 0.4)"/><path d="M669.94,49.94H664.1V42.87h5.84a2.1,2.1,0,0,0,1.6-.67,2.37,2.37,0,0,0,.65-1.7V9.5a2.42,2.42,0,0,0-.68-1.73,2.11,2.11,0,0,0-1.57-.71H664.1V0h5.84a9.43,9.43,0,0,1,7,3A9.77,9.77,0,0,1,679.82,10V40a9.61,9.61,0,0,1-2.92,7A9.43,9.43,0,0,1,669.94,49.94Z" transform="translate(-4.74 0.4)"/><path d="M701.33,40V9.56a9.56,9.56,0,0,1,2.95-7,9.57,9.57,0,0,1,7-3h10.91V6.67H711.28A2.2,2.2,0,0,0,709,9V40.56a2.2,2.2,0,0,0,2.31,2.31h4.5a2.22,2.22,0,0,0,1.66-.64,2.25,2.25,0,0,0,.65-1.67V28h-4.24V21h7.7a3.9,3.9,0,0,1,4.18,4.18V40a10.11,10.11,0,0,1-10,10h-4.5a10.09,10.09,0,0,1-9.95-10Z" transform="translate(-4.74 0.4)"/><path d="M741,49.94h-7.64V-.4H741l13.1,34.61V-.4h7.64V49.94h-8.15L741,16.75Z" transform="translate(-4.74 0.4)"/><path d="M769.7,40V27.4a10.07,10.07,0,0,1,9.95-9.95h4.11a9.6,9.6,0,0,1,7,2.95,9.61,9.61,0,0,1,3,7V40a10.09,10.09,0,0,1-10,10h-4.11a10.09,10.09,0,0,1-9.95-10Zm9.95,2.89h4.11a2.2,2.2,0,0,0,2.31-2.31V26.82a2.22,2.22,0,0,0-.64-1.66,2.27,2.27,0,0,0-1.67-.65h-4.11a2.27,2.27,0,0,0-1.67.65,2.22,2.22,0,0,0-.64,1.66V40.56a2.2,2.2,0,0,0,2.31,2.31Z" transform="translate(-4.74 0.4)"/><path d="M799.62,40V35.11h7.63v5.45a2.21,2.21,0,0,0,2.32,2.31h4.75a2.36,2.36,0,0,0,1.7-.64,2.19,2.19,0,0,0,.67-1.67V30.16a2.14,2.14,0,0,0-.67-1.57,2.31,2.31,0,0,0-1.7-.67h-4.43a9.57,9.57,0,0,1-7-3,9.55,9.55,0,0,1-2.95-7V9.56a9.56,9.56,0,0,1,2.95-7,9.57,9.57,0,0,1,7-3h4.17a9.57,9.57,0,0,1,7,3,9.56,9.56,0,0,1,3,7v4.62h-7.64V9a2.16,2.16,0,0,0-.71-1.64A2.31,2.31,0,0,0,814,6.67h-4.11A2.29,2.29,0,0,0,807.58,9v9.56a2.29,2.29,0,0,0,2.31,2.31h4.49a9.64,9.64,0,0,1,7,2.92,9.46,9.46,0,0,1,3,7V40a10.09,10.09,0,0,1-10,10h-4.81a10.09,10.09,0,0,1-10-10Z" transform="translate(-4.74 0.4)"/></svg>