<svg xmlns="http://www.w3.org/2000/svg" width="977.64" height="86.3" viewBox="0 0 977.64 86.3"><title>Безымянный-2</title><path d="M0,69.24V9.2H17.23a11.44,11.44,0,0,1,8.35,3.52,11.44,11.44,0,0,1,3.52,8.35v36.3a11.42,11.42,0,0,1-3.52,8.34,11.41,11.41,0,0,1-8.35,3.53Zm9.11-8.43h8.12A2.62,2.62,0,0,0,20,58.06V20.38a2.64,2.64,0,0,0-2.76-2.76H9.11Z" transform="translate(0 -1.85)"/><path d="M47.48,69.24H38.36V9.2h9.12Z" transform="translate(0 -1.85)"/><path d="M56.05,57.37V51.55h9.12v6.51a2.61,2.61,0,0,0,2.75,2.75h5.67a2.84,2.84,0,0,0,2-.76,2.65,2.65,0,0,0,.8-2V45.65a2.61,2.61,0,0,0-.8-1.88,2.79,2.79,0,0,0-2-.8H68.3A11.4,11.4,0,0,1,60,39.45a11.4,11.4,0,0,1-3.52-8.35v-10A11.4,11.4,0,0,1,60,12.72,11.43,11.43,0,0,1,68.3,9.2h5a11.44,11.44,0,0,1,8.35,3.52,11.4,11.4,0,0,1,3.52,8.35v5.51H76v-6.2a2.58,2.58,0,0,0-.84-1.95,2.8,2.8,0,0,0-2-.81H68.3a2.75,2.75,0,0,0-2.75,2.76V31.79a2.75,2.75,0,0,0,2.75,2.76h5.37A11.47,11.47,0,0,1,82,38a11.28,11.28,0,0,1,3.52,8.31v11A12,12,0,0,1,73.67,69.24H67.92A12,12,0,0,1,56.05,57.37Z" transform="translate(0 -1.85)"/><path d="M92.35,57.37V21.07a11.4,11.4,0,0,1,3.52-8.35,11.44,11.44,0,0,1,8.35-3.52h5.36a11.44,11.44,0,0,1,8.35,3.52,11.44,11.44,0,0,1,3.52,8.35v2.68h-9.11V20.38a2.64,2.64,0,0,0-2.76-2.76h-5.36a2.64,2.64,0,0,0-2.76,2.76V58.06a2.62,2.62,0,0,0,2.76,2.75h5.36a2.62,2.62,0,0,0,2.76-2.75V54.69h9.11v2.68a12,12,0,0,1-11.87,11.87h-5.36A12,12,0,0,1,92.35,57.37Z" transform="translate(0 -1.85)"/><path d="M129,57.37V21.07a11.4,11.4,0,0,1,3.52-8.35A11.44,11.44,0,0,1,140.9,9.2h5.36a11.44,11.44,0,0,1,8.35,3.52,11.44,11.44,0,0,1,3.52,8.35v36.3a12,12,0,0,1-11.87,11.87H140.9A12,12,0,0,1,129,57.37Zm11.87,3.44h5.36A2.62,2.62,0,0,0,149,58.06V20.38a2.64,2.64,0,0,0-2.76-2.76H140.9a2.64,2.64,0,0,0-2.76,2.76V58.06a2.62,2.62,0,0,0,2.76,2.75Z" transform="translate(0 -1.85)"/><path d="M196.49,46.8V69.24h-9.11V46.11a2.64,2.64,0,0,0-2.76-2.76h-8.11V69.24h-9.12V9.2h16.85a11.44,11.44,0,0,1,8.35,3.52,11.4,11.4,0,0,1,3.52,8.35V31.48a11.3,11.3,0,0,1-2.6,7.43A11.53,11.53,0,0,1,196.49,46.8Zm-20-11.87h7.73a2.65,2.65,0,0,0,2-.77,2.69,2.69,0,0,0,.77-2V20.38a2.64,2.64,0,0,0-2.76-2.76h-7.73Z" transform="translate(0 -1.85)"/><path d="M205.76,69.24V9.2H223a11.42,11.42,0,0,1,8.34,3.52,11.41,11.41,0,0,1,3.53,8.35v36.3A12.06,12.06,0,0,1,223,69.24Zm9.11-8.43H223a2.61,2.61,0,0,0,2.75-2.75V20.38A2.62,2.62,0,0,0,223,17.62h-8.12Z" transform="translate(0 -1.85)"/><path d="M256.15,69.24V21.07a11.4,11.4,0,0,1,3.52-8.35A11.43,11.43,0,0,1,268,9.2h5.36a11.44,11.44,0,0,1,8.35,3.52,11.4,11.4,0,0,1,3.52,8.35V69.24h-9.11V43.12H265.26V69.24Zm9.11-34.54h10.87V20.38a2.68,2.68,0,0,0-.76-2,2.73,2.73,0,0,0-2-.77H268a2.62,2.62,0,0,0-2.75,2.76Z" transform="translate(0 -1.85)"/><path d="M294.51,69.24V9.2h17.23a11.44,11.44,0,0,1,8.35,3.52,11.44,11.44,0,0,1,3.52,8.35V31.94a11.44,11.44,0,0,1-3.52,8.35,11.4,11.4,0,0,1-8.35,3.52h-8.12V69.24Zm9.11-33.85h8.12a2.64,2.64,0,0,0,2.76-2.76V20.38a2.64,2.64,0,0,0-2.76-2.76h-8.12Z" transform="translate(0 -1.85)"/><path d="M332.87,69.24V9.2H350.1a11.44,11.44,0,0,1,8.35,3.52A11.4,11.4,0,0,1,362,21.07V31.94a11.4,11.4,0,0,1-3.52,8.35,11.4,11.4,0,0,1-8.35,3.52H342V69.24ZM342,35.39h8.11a2.64,2.64,0,0,0,2.76-2.76V20.38a2.64,2.64,0,0,0-2.76-2.76H342Z" transform="translate(0 -1.85)"/><path d="M391.15,69.24H371.24V9.2h9.11V60.81h10.8Z" transform="translate(0 -1.85)"/><path d="M409.14,69.24H400V9.2h9.11Z" transform="translate(0 -1.85)"/><path d="M418.41,57.37V21.07a11.4,11.4,0,0,1,3.52-8.35,11.44,11.44,0,0,1,8.35-3.52h5.36A11.42,11.42,0,0,1,444,12.72a11.41,11.41,0,0,1,3.53,8.35v2.68h-9.12V20.38a2.62,2.62,0,0,0-2.75-2.76h-5.36a2.64,2.64,0,0,0-2.76,2.76V58.06a2.62,2.62,0,0,0,2.76,2.75h5.36a2.61,2.61,0,0,0,2.75-2.75V54.69h9.12v2.68a12.06,12.06,0,0,1-11.87,11.87h-5.36a12,12,0,0,1-11.87-11.87Z" transform="translate(0 -1.85)"/><path d="M455.09,69.24V21.07a11.4,11.4,0,0,1,3.52-8.35A11.44,11.44,0,0,1,467,9.2h5.36a11.43,11.43,0,0,1,8.34,3.52,11.41,11.41,0,0,1,3.53,8.35V69.24h-9.12V43.12H464.2V69.24ZM464.2,34.7h10.87V20.38a2.62,2.62,0,0,0-2.75-2.76H467a2.69,2.69,0,0,0-2,.77,2.65,2.65,0,0,0-.77,2Z" transform="translate(0 -1.85)"/><path d="M507.92,69.24h-9.11V17.62h-9.72V9.2h28.64v8.42h-9.81Z" transform="translate(0 -1.85)"/><path d="M533.5,69.24h-9.11V9.2h9.11Z" transform="translate(0 -1.85)"/><path d="M542.77,57.37V21.07a11.4,11.4,0,0,1,3.52-8.35,11.44,11.44,0,0,1,8.35-3.52H560a11.43,11.43,0,0,1,8.34,3.52,11.41,11.41,0,0,1,3.53,8.35v36.3A12.06,12.06,0,0,1,560,69.24h-5.36a12,12,0,0,1-11.87-11.87Zm11.87,3.44H560a2.61,2.61,0,0,0,2.75-2.75V20.38A2.62,2.62,0,0,0,560,17.62h-5.36a2.71,2.71,0,0,0-2,.77,2.68,2.68,0,0,0-.76,2V58.06a2.61,2.61,0,0,0,2.76,2.75Z" transform="translate(0 -1.85)"/><path d="M590.24,69.24h-9.11V9.2h9.11l15.63,41.28V9.2H615v60h-9.73l-15-39.59Z" transform="translate(0 -1.85)"/><path d="M667.51,42.36v15a12,12,0,0,1-11.87,11.87h-.31a12.59,12.59,0,0,1-7.35-2.3v2.3h-9.11V4.68H648V32.79a12.51,12.51,0,0,1,7.35-2.3h.31a12,12,0,0,1,11.87,11.87Zm-9.11,15.7V41.67a2.64,2.64,0,0,0-2.76-2.76h-4.9A2.64,2.64,0,0,0,648,41.67V58.06a2.62,2.62,0,0,0,2.76,2.75h4.9a2.62,2.62,0,0,0,2.76-2.75Z" transform="translate(0 -1.85)"/><path d="M687.8,54.46l7.43-24H704L685.81,88.15h-8.5l6.36-20.52L672,30.49h8.8Z" transform="translate(0 -1.85)"/><path d="M727.85,65.56V13.79a11.62,11.62,0,0,1,3.45-8.42,11.22,11.22,0,0,1,8.34-3.52h7v8.42h-7a2.5,2.5,0,0,0-1.87.84,2.9,2.9,0,0,0-.81,2.07v53a2.82,2.82,0,0,0,.77,2,2.52,2.52,0,0,0,1.91.81h7v8.42h-7a11.3,11.3,0,0,1-8.31-3.52A11.48,11.48,0,0,1,727.85,65.56Z" transform="translate(0 -1.85)"/><path d="M752,57.37V21.07a11.4,11.4,0,0,1,3.52-8.35,11.44,11.44,0,0,1,8.35-3.52h5.36a11.44,11.44,0,0,1,8.35,3.52,11.4,11.4,0,0,1,3.52,8.35v2.68H772V20.38a2.64,2.64,0,0,0-2.76-2.76h-5.36a2.64,2.64,0,0,0-2.76,2.76V58.06a2.62,2.62,0,0,0,2.76,2.75h5.36A2.62,2.62,0,0,0,772,58.06V54.69h9.11v2.68A12,12,0,0,1,769.2,69.24h-5.36A12,12,0,0,1,752,57.37Z" transform="translate(0 -1.85)"/><path d="M793.47,77.43h-7V69h7a2.53,2.53,0,0,0,1.92-.81,2.82,2.82,0,0,0,.77-2v-53a2.9,2.9,0,0,0-.81-2.07,2.51,2.51,0,0,0-1.88-.84h-7V1.85h7a11.24,11.24,0,0,1,8.35,3.52,11.62,11.62,0,0,1,3.45,8.42V65.56a11.45,11.45,0,0,1-3.49,8.35A11.27,11.27,0,0,1,793.47,77.43Z" transform="translate(0 -1.85)"/><path d="M830.92,57.37V21.07a11.4,11.4,0,0,1,3.52-8.35,11.44,11.44,0,0,1,8.35-3.52h13v8.42h-13A2.64,2.64,0,0,0,840,20.38V58.06a2.62,2.62,0,0,0,2.76,2.75h5.36a2.62,2.62,0,0,0,2.76-2.75V43.12h-5.06V34.7H855a4.63,4.63,0,0,1,5,5V57.37a12,12,0,0,1-11.87,11.87h-5.36a12,12,0,0,1-11.87-11.87Z" transform="translate(0 -1.85)"/><path d="M878.24,69.24h-9.11V9.2h9.11l15.63,41.28V9.2H903v60h-9.73l-15-39.59Z" transform="translate(0 -1.85)"/><path d="M912.47,57.37v-15a12,12,0,0,1,11.87-11.87h4.9a12,12,0,0,1,11.87,11.87v15a12,12,0,0,1-11.87,11.87h-4.9a12.06,12.06,0,0,1-11.87-11.87Zm11.87,3.44h4.9A2.61,2.61,0,0,0,932,58.06V41.67a2.68,2.68,0,0,0-.76-2,2.73,2.73,0,0,0-2-.77h-4.9a2.62,2.62,0,0,0-2.75,2.76V58.06a2.61,2.61,0,0,0,2.75,2.75Z" transform="translate(0 -1.85)"/><path d="M948.16,57.37V51.55h9.11v6.51A2.62,2.62,0,0,0,960,60.81h5.67a2.8,2.8,0,0,0,2-.76,2.62,2.62,0,0,0,.81-2V45.65a2.58,2.58,0,0,0-.81-1.88,2.75,2.75,0,0,0-2-.8h-5.29a11.42,11.42,0,0,1-8.35-3.52,11.44,11.44,0,0,1-3.52-8.35v-10a11.44,11.44,0,0,1,3.52-8.35,11.46,11.46,0,0,1,8.35-3.52h5a11.46,11.46,0,0,1,8.35,3.52,11.44,11.44,0,0,1,3.52,8.35v5.51h-9.11v-6.2a2.59,2.59,0,0,0-.85-1.95,2.76,2.76,0,0,0-2-.81h-4.9a2.77,2.77,0,0,0-2.76,2.76V31.79a2.77,2.77,0,0,0,2.76,2.76h5.36A11.48,11.48,0,0,1,974.12,38a11.28,11.28,0,0,1,3.52,8.31v11a12,12,0,0,1-11.87,11.87H960a12,12,0,0,1-11.87-11.87Z" transform="translate(0 -1.85)"/></svg>